<?xml version="1.0"?>
<svg xmlns="http://www.w3.org/2000/svg" id="Capa_1" enable-background="new 0 0 512 512" height="42px" viewBox="0 0 512 512" width="42px"><g><g><path d="m351 503.213 111.213-111.213h-111.213z" data-original="#000000" class="active-path" data-old_color="#000000" fill="#32D736"/><path d="m456 0h-400c-8.284 0-15 6.716-15 15v106h430v-106c0-8.284-6.716-15-15-15zm-310 75.5h-30c-8.284 0-15-6.716-15-15s6.716-15 15-15h30c8.284 0 15 6.716 15 15s-6.716 15-15 15zm250 0h-30c-8.284 0-15-6.716-15-15s6.716-15 15-15h30c8.284 0 15 6.716 15 15s-6.716 15-15 15z" data-original="#000000" class="active-path" data-old_color="#000000" fill="#32D736"/><path d="m41 151v346c0 8.284 6.716 15 15 15h265v-135c0-8.284 6.716-15 15-15h135v-211zm235 301h-160c-8.284 0-15-6.716-15-15s6.716-15 15-15h160c8.284 0 15 6.716 15 15s-6.716 15-15 15zm0-60h-160c-8.284 0-15-6.716-15-15s6.716-15 15-15h160c8.284 0 15 6.716 15 15s-6.716 15-15 15zm120-60h-280c-8.284 0-15-6.716-15-15s6.716-15 15-15h280c8.284 0 15 6.716 15 15s-6.716 15-15 15zm0-60h-280c-8.284 0-15-6.716-15-15s6.716-15 15-15h280c8.284 0 15 6.716 15 15s-6.716 15-15 15zm0-60h-280c-8.284 0-15-6.716-15-15s6.716-15 15-15h280c8.284 0 15 6.716 15 15s-6.716 15-15 15z" data-original="#000000" class="active-path" data-old_color="#000000" fill="#32D736"/></g></g> </svg>
