<?xml version="1.0"?>
<svg xmlns="http://www.w3.org/2000/svg" id="Layer_1" height="42px" viewBox="0 0 512 512" width="42px" data-name="Layer 1" class=""><g><path d="m65 131h382v28h-382z" data-original="#000000" class="active-path" data-old_color="#000000" fill="#32D736"/><path d="m397.318 73.44c-4.076-16.012-13.4-28.1-18.352-32.751-4.752 3.422-14.165 7.107-33.735 11.045-24.619 4.953-59.389 9.112-103.345 12.323-47.288 3.455-80.174 20.407-99.435 34.111a178.249 178.249 0 0 0 -22.068 18.832h270.126c8.559-13 10.854-27.67 6.809-43.56z" data-original="#000000" class="active-path" data-old_color="#000000" fill="#32D736"/><path d="m137 312h238v98h-238z" data-original="#000000" class="active-path" data-old_color="#000000" fill="#32D736"/><path d="m53 435.248a35.487 35.487 0 0 0 35.733 35.752h334.534a35.487 35.487 0 0 0 35.733-35.752v-178.248h-406zm70-130.248a7 7 0 0 1 7-7h252a7 7 0 0 1 7 7v112a7 7 0 0 1 -7 7h-252a7 7 0 0 1 -7-7z" data-original="#000000" class="active-path" data-old_color="#000000" fill="#32D736"/><path d="m42 173h428v70h-428z" data-original="#000000" class="active-path" data-old_color="#000000" fill="#32D736"/></g> </svg>
